<?xml version="1.0" encoding="utf-8"?>
<!-- Generator: Adobe Illustrator 18.1.0, SVG Export Plug-In . SVG Version: 6.00 Build 0)  -->
<svg version="1.1" id="Lager_1" xmlns="http://www.w3.org/2000/svg" xmlns:xlink="http://www.w3.org/1999/xlink" x="0px" y="0px"
	 viewBox="0 0 766 765.9" enable-background="new 0 0 766 765.9" xml:space="preserve">
<g>
	<circle fill="#D0D0D0" stroke="#FFFFFF" stroke-width="15" stroke-miterlimit="10" cx="209.6" cy="187.2" r="86.3"/>
	<circle fill="#D0D0D0" stroke="#FFFFFF" stroke-width="15" stroke-miterlimit="10" cx="560.7" cy="187.2" r="86.3"/>
	<circle fill="#FFFFFF" cx="212.6" cy="187.3" r="45.9"/>
	<circle fill="#FFFFFF" cx="559.4" cy="187.2" r="45.9"/>
	<path fill="#B2B2B2" d="M386.9,747.8c144.6,0,261.9-117.2,261.9-261.9S531.5,224,386.9,224S125,341.3,125,485.9
		S242.3,747.8,386.9,747.8"/>
	<path fill="#D0D0D0" stroke="#FFFFFF" stroke-width="15" stroke-miterlimit="10" d="M386.9,29.9c-94.5,0-171,76.6-171,171
		s76.6,171,171,171s171-76.6,171-171S481.4,29.9,386.9,29.9"/>
	<circle fill="#FFFFFF" stroke="#D0D0D0" stroke-width="15" stroke-miterlimit="10" cx="386.9" cy="246.5" r="108.3"/>
	<line fill="none" stroke="#D0D0D0" stroke-width="15" stroke-miterlimit="10" x1="278.9" y1="269.6" x2="494.9" y2="269.6"/>
	<path fill="none" stroke="#FFFFFF" stroke-width="42" stroke-miterlimit="10" d="M188.7,622.1c-58.4-10.5-77-55.6-56.5-85
		c22.3-31.9,109.6-41.4,127.1-103.3c20.1-71.2-60-110-100.9-79.3c-44.9,33.5-4.7,97.9,40.7,72.8"/>
	<path fill="none" stroke="#D0D0D0" stroke-width="15" stroke-miterlimit="10" d="M189.2,622.1c-54.1-4.2-79.1-51.4-57-85
		c22.4-34,114.5-45.1,127.6-103.3c16.7-73.9-60.4-110.6-100.9-79.3c-46,35.4-2.3,93,26.4,78.8"/>
	<circle fill="#FFFFFF" cx="333.9" cy="150.7" r="55"/>
	<circle fill="#FFFFFF" cx="441.8" cy="150.7" r="55"/>
	<circle fill="#B2B2B2" cx="342.4" cy="160.8" r="25.9"/>
	<circle fill="#B2B2B2" cx="432.5" cy="160.8" r="25.9"/>
	<circle fill="#B2B2B2" cx="367.2" cy="210.6" r="5"/>
	<circle fill="#B2B2B2" cx="407.4" cy="210.6" r="5"/>
	<path fill="#D0D0D0" stroke="#FFFFFF" stroke-width="15" stroke-miterlimit="10" d="M603,627.7c0,0-293.1-86.8-339.2-93.6
		c-69.7-10.2-120.5,50.3-108.8,104.5c9.3,42.9,49.8,77.5,101.8,69C352.7,691.9,603,627.7,603,627.7z"/>
	<path fill="#D0D0D0" stroke="#FFFFFF" stroke-width="15" stroke-miterlimit="10" d="M539.5,706.8c70.4-8.3,102.3-79.4,75.4-128.2
		c-21.3-38.6-70.4-61.2-118.3-39.6C408.2,579,184.3,705.3,184.3,705.3S493,712.3,539.5,706.8"/>
	<rect x="400" y="662.4" fill="none" width="164.7" height="29.5"/>
	<text transform="matrix(1 0 0 1 400.0254 688.8768)" fill="#FFFFFF" font-family="'CenturyGothic-Bold'" font-size="36">gautema</text>
</g>
</svg>
